<svg width="353" height="581" viewBox="0 0 353 581" fill="none" xmlns="http://www.w3.org/2000/svg">
<rect width="353" height="581" fill="#1E1E1E"/>
<path d="M-101 -207C-101 -208.105 -100.105 -209 -99 -209H893C894.105 -209 895 -208.105 895 -207V789C895 790.105 894.105 791 893 791H-99C-100.105 791 -101 790.105 -101 789V-207Z" fill="#FFFEFE"/>
<path d="M-99 -208H893V-210H-99V-208ZM894 -207V789H896V-207H894ZM893 790H-99V792H893V790ZM-100 789V-207H-102V789H-100ZM-99 790C-99.5523 790 -100 789.552 -100 789H-102C-102 790.657 -100.657 792 -99 792V790ZM894 789C894 789.552 893.552 790 893 790V792C894.657 792 896 790.657 896 789H894ZM893 -208C893.552 -208 894 -207.552 894 -207H896C896 -208.657 894.657 -210 893 -210V-208ZM-99 -210C-100.657 -210 -102 -208.657 -102 -207H-100C-100 -207.552 -99.5523 -208 -99 -208V-210Z" fill="white" fill-opacity="0.1"/>
<circle cx="302.5" cy="199.5" r="48" fill="white" stroke="#909090" stroke-width="5"/>
<rect x="176.337" y="34.6662" width="39" height="199.598" transform="rotate(45 176.337 34.6662)" fill="black" stroke="#FFFEFE" stroke-width="3"/>
<rect x="34.5" y="1.5" width="39" height="578" rx="3.5" fill="black" stroke="#FFFEFE" stroke-width="3"/>
<rect x="351.5" y="34.5" width="39" height="350" rx="3.5" transform="rotate(90 351.5 34.5)" fill="black" stroke="#FFFEFE" stroke-width="3"/>
<rect x="298" y="75" width="10" height="74" fill="black"/>
<rect x="300" y="250" width="5" height="131" fill="#909090"/>
</svg>
